<svg width="59" height="58" viewBox="0 0 59 58" fill="none" xmlns="http://www.w3.org/2000/svg">
<circle cx="29.5" cy="29" r="29" fill="#FFD6AF"/>
<mask id="mask0" mask-type="alpha" maskUnits="userSpaceOnUse" x="0" y="0" width="59" height="58">
<circle cx="29.5" cy="29" r="29" fill="#FFD6AF"/>
</mask>
<g mask="url(#mask0)">
<path d="M28.9508 78.0682L21.0547 66.8156C20.9531 66.6724 20.9023 66.4968 20.913 66.3186L21.2874 59.2526L21.9024 47.6218L22.0013 45.758L22.2446 41.1419C22.2446 41.1284 22.2446 41.1149 22.2446 41.0987V39.2106V36.9471C22.2446 36.5123 22.5922 36.1611 23.0227 36.1611H36.1463C36.5768 36.1611 36.9244 36.5123 36.9244 36.9471V39.4402V41.2067C36.9244 41.3013 36.9404 41.3958 36.9752 41.4822L43.3819 58.7124C43.4728 58.9555 43.438 59.231 43.2883 59.4417L30.2209 78.0655C29.908 78.5085 29.261 78.5085 28.9508 78.0682Z" fill="#C3B4B2"/>
<path d="M48.9566 51.3627C49.4406 50.6712 49.2374 49.7096 48.5101 49.2828C48.363 49.1964 48.2079 49.1073 48.0502 49.0181L47.4967 48.7048L43.2077 46.5305C43.197 46.525 43.1863 46.5196 43.1783 46.5142L40.3252 44.6991C40.3172 44.6937 40.3092 44.6883 40.3012 44.6829L38.515 43.3162C38.499 43.3027 38.4829 43.2892 38.4669 43.273L37.8278 42.5734C37.8198 42.5653 37.8118 42.5545 37.8037 42.5464L37.1674 41.6874C37.0363 41.5119 36.7823 41.493 36.6299 41.6523L33.702 44.6856C33.6111 44.7802 33.579 44.9179 33.6164 45.0449L35.5149 51.1169L37.662 57.3996C37.7877 57.7669 37.9669 58.1099 38.1968 58.4233L41.0098 62.2588C41.1007 62.383 41.1033 62.5532 41.0151 62.6801" fill="#312D2D"/>
<path d="M21.7203 67.7666C21.6481 67.664 21.6347 67.5289 21.6855 67.4128L22.1588 66.3486C22.346 65.9137 22.4476 65.4437 22.4502 64.971L22.5144 58.8936C22.5198 58.321 22.6 57.7511 22.7497 57.1973C23.1481 55.7226 23.9717 52.692 24.3166 51.4846C24.4156 51.1389 24.5573 50.8039 24.7364 50.4906L26.1456 48.0461C26.1857 47.9759 26.2017 47.8922 26.1884 47.8111L25.7445 44.9183C25.7338 44.8454 25.7017 44.7778 25.6509 44.7265L22.5625 41.4609C22.4021 41.2907 22.1267 41.3205 22.0037 41.5203L21.4475 42.436C21.4368 42.4522 21.4261 42.4684 21.4128 42.4819L20.9021 43.0789C20.8967 43.0843 20.894 43.0897 20.8887 43.0924L19.2656 44.7967C19.2389 44.8264 19.2068 44.8481 19.172 44.867L15.9714 46.5254L11.6664 48.7079L11.1343 49.0077C11.1209 49.0158 11.1049 49.0239 11.0915 49.0293L10.538 49.2481C9.81603 49.5344 9.55132 50.4285 10.0005 51.0686" fill="#312D2D"/>
<path opacity="0.1" d="M22.2456 36.353L23.005 37.682L23.7136 38.3221L24.3366 39.0001L24.8045 39.6078L25.2751 40.3452L25.7805 41.3716L26.1629 42.2846L26.4329 43.0166L26.6335 43.654L26.8367 44.07L27.2191 44.6156L27.4143 44.8128L27.572 44.9235L27.6924 44.9397L27.7351 44.8533L27.7084 44.5103L27.6924 44.1618L27.7699 44.0268L27.8982 44.0133L28.0186 44.0754L28.0694 44.1726V44.3725V44.5643L28.1015 44.775L28.1549 44.9397L28.2592 45.1585L28.3742 45.3476L28.5346 45.5529L28.6389 45.6528L28.7218 45.7176L28.8127 45.7582L28.8502 45.7554L28.8689 45.7122L28.8555 45.6339L28.8314 45.5286L28.8207 45.4475L28.8154 45.3692L28.8207 45.2531L28.8368 45.1423L28.8582 45.0262L28.8903 44.91L28.9197 44.8182L28.9705 44.6966L29.0133 44.6237L29.0507 44.5697L29.1095 44.5157L29.1737 44.4886L29.2272 44.4913L29.302 44.5265L29.3635 44.5805L29.417 44.648L29.4678 44.729L29.516 44.8236L29.54 44.8857L29.5614 44.9424L29.5828 45.0289L29.5962 45.1261L29.6015 45.199L29.5988 45.2801L29.5882 45.3827L29.5668 45.4826L29.548 45.5664L29.5373 45.6258L29.5347 45.6663L29.5534 45.7041L29.6015 45.7122L29.6791 45.6879L29.77 45.6366L29.8315 45.5934L29.909 45.5286L29.9999 45.4367L30.0695 45.3503L30.131 45.2612L30.2032 45.1288L30.2433 45.0316L30.2673 44.9505L30.2887 44.8533L30.3101 44.7371L30.3342 44.6102L30.385 44.4022L30.4251 44.2753L30.4732 44.1537L30.5213 44.0484L30.5855 43.97L30.6176 43.9565L30.6657 43.97L30.7219 44.0187L30.7513 44.0592L30.7754 44.0997L30.8155 44.1834L30.8369 44.2456L30.8556 44.3266L30.8636 44.3887V44.4616L30.8583 44.5751L30.8342 44.6777L30.8075 44.7588L30.778 44.8479L30.7807 44.8857L30.7968 44.8884L30.8476 44.8749L30.9358 44.8209L31.0374 44.7425L31.1658 44.6291L31.2486 44.5508L31.4679 44.3212L31.631 44.1294L31.9091 43.7621L32.131 43.419L32.2995 43.1165L32.4412 42.8248L32.6016 42.4331L32.7621 41.9253L32.8904 41.404L32.984 41.0529L33.1124 40.7099L33.2648 40.4127L33.3851 40.221L33.6311 39.8887L34.083 39.4106L34.7729 38.8353L35.7622 38.1438L36.7622 37.5145L36.9254 36.7825" fill="black"/>
<path d="M29.6946 44.9856C29.6117 44.9343 29.8149 44.6588 29.7133 44.2698C29.6545 44.0375 29.4861 43.7593 29.3283 43.7701C29.1278 43.7809 28.9941 44.2455 28.962 44.5372C28.9299 44.829 29.0529 45.0018 28.9914 45.0369C28.9085 45.0856 28.6358 44.8344 28.4673 44.5561C28.371 44.3941 28.2079 44.124 28.2106 43.7701C28.2106 43.5919 28.2561 43.446 28.1598 43.3569C28.0983 43.3002 27.986 43.2677 27.9111 43.3083C27.6865 43.4325 27.9913 44.1375 27.8309 44.2212C27.6785 44.2995 27.1731 43.7809 26.8603 43.13C26.7105 42.8194 26.649 42.5682 26.6223 42.4628C26.6223 42.4628 26.4752 41.8929 25.7907 40.3614C24.6971 37.9223 22.6596 36.6015 22.6596 36.6015C22.2719 36.2936 21.9831 36.3125 21.0151 35.7966C19.8359 35.1672 19.3894 34.9133 19.3894 34.9133C18.7343 34.5379 18.5765 34.4217 18.2209 34.3434C18.0417 34.3029 17.2315 34.1246 16.8144 34.5406C16.5577 34.7945 16.5925 35.1321 16.5176 35.1294C16.3973 35.124 16.1647 34.2597 16.3385 33.3035C16.5604 32.0853 17.3278 31.3587 17.1112 31.1426C17.0337 31.0643 16.8599 31.1156 16.5176 31.221C16.2101 31.3155 15.6245 31.4938 15.1299 32.007C14.6272 32.531 14.5282 33.082 14.4774 33.0685C14.3304 33.0253 14.6165 31.2588 15.1111 30.1216C15.3892 29.4815 15.6005 29.0007 15.8545 28.8386C15.8892 28.817 16.0497 28.7225 16.0524 28.5901C16.055 28.4902 15.9668 28.4173 15.9588 28.4092C15.8224 28.2957 15.6058 28.3524 15.5229 28.374C14.9079 28.5334 14.2421 29.3896 14.0817 29.3113C13.8811 29.2168 14.3009 27.5934 15.2609 26.0376C15.8491 25.0814 16.3599 24.2495 17.2208 24.0496C17.384 24.0118 17.7583 23.9497 17.7717 23.8146C17.7904 23.6094 16.9588 23.4068 16.9829 23.2987C17.0096 23.1853 17.9401 23.4041 18.0391 23.1799C18.1032 23.034 17.7663 22.8125 17.3412 22.3561C17.3412 22.3561 16.8786 21.8564 16.4935 21.2081C16.0497 20.4545 15.8999 19.7576 15.7796 19.1904C15.6566 18.5935 15.6272 18.1505 15.6005 17.775C15.5176 16.5947 15.3812 15.417 15.2742 14.2393C15.0443 11.7355 14.8865 10.8738 15.3785 10.5713C15.5898 10.4416 15.8304 10.4714 16.0015 10.4984C20.6167 11.1952 22.5981 12.959 22.5981 12.959C23.1222 13.4236 23.6489 14.0044 24.558 14.1529C25.157 14.2502 25.1944 14.0449 26.0287 14.0341C27.4753 14.0179 27.8844 14.6337 29.2374 14.5203C29.7534 14.477 29.6117 14.396 30.3016 14.2934C32.0851 14.0341 32.7135 14.6283 34.0745 14.3231C34.1895 14.2961 34.644 14.0935 35.5505 13.6856C37.1976 12.9455 37.5292 12.7403 38.4918 12.3216C39.0052 12.0974 39.7325 11.8273 41.1871 11.2898C43.623 10.3876 44.1925 10.2337 44.5161 10.5227C44.7621 10.7442 44.7327 11.1034 44.6845 11.8084C44.5936 13.1238 44.599 14.4446 44.4573 15.7573C44.1765 18.3261 44.2032 18.5503 43.9813 19.3903C43.5508 21.0352 43.0855 21.5701 42.901 21.7672C42.2272 22.483 41.3849 22.7801 41.4545 22.9665C41.5374 23.1907 42.8182 22.8936 42.8609 23.0556C42.8957 23.1934 41.9892 23.4365 42.008 23.7336C42.0213 23.9254 42.4197 24.028 42.6604 24.1172C43.393 24.3846 43.7727 24.9221 44.5134 25.9728C45.5482 27.4449 46.075 29.1411 45.8905 29.2384C45.8316 29.2708 45.7487 29.1087 45.4439 28.9007C44.7942 28.4578 43.9439 28.3551 43.853 28.5334C43.7941 28.6523 44.0722 28.8845 44.238 29.0493C45.6365 30.4215 45.6471 33.163 45.4867 33.2036C45.4359 33.2171 45.4118 32.9524 45.1605 32.5715C44.3984 31.4127 42.754 30.9752 42.6337 31.1723C42.5962 31.2318 42.7058 31.3425 42.8128 31.483C43.7273 32.6904 43.4946 34.835 43.2139 34.8863C43.115 34.9025 43.0829 34.654 42.8877 34.4731C42.0721 33.7276 39.5373 35.2213 38.326 35.9451C35.112 37.8683 33.5076 38.8326 33.0664 40.5126C32.9434 40.9799 32.8151 41.8551 32.176 42.8545C31.6332 43.7026 30.9861 44.2347 30.9139 44.1807C30.8711 44.1483 31.0476 43.9322 30.9888 43.6216C30.954 43.446 30.8471 43.2461 30.7508 43.2542C30.7 43.2569 30.6519 43.3164 30.5717 43.5351C30.438 43.8998 30.446 44.0835 30.3925 44.2725C30.2668 44.7263 29.7962 45.0477 29.6946 44.9856Z" fill="#C3B4B2"/>
<path d="M17.9635 13.8259L17.2495 13.5909L16.5356 13.2209L16.0757 12.8103L16.1639 13.3181L16.4768 14.0312L17.0196 14.9306L17.3966 15.4898L17.9635 15.9625L18.0651 16.1974H17.3244L16.5944 15.9922L16.4313 15.9462L16.6987 16.5054L17.0704 16.9483L17.5624 17.3157L18.0651 17.5669L17.918 17.9504L17.4126 18.2881L17.2629 18.4501L17.5463 18.6419L18.0651 18.9822L18.5116 19.1146H18.6908" stroke="#D6D5D5" stroke-width="1.36461" stroke-miterlimit="10"/>
<g opacity="0.2">
<path opacity="0.2" d="M18.6074 15.4496L18.1528 15.1687L18.1181 15.2768L18.217 15.5226L18.3454 15.7278L18.5807 16.0358L18.832 16.3302L18.9416 16.5328L18.9764 16.6516L18.6689 16.7299L18.2838 16.7353L18.2063 16.7299C18.1849 16.7299 18.1395 16.7218 18.1582 16.7569C18.1715 16.8083 18.1903 16.8569 18.2063 16.9082L18.3213 17.0838C18.4978 17.2431 18.6769 17.3971 18.8561 17.5511L19.1743 17.7374C19.2946 17.7915 19.4149 17.8455 19.5406 17.8887C19.4122 17.8509 19.2892 17.805 19.1662 17.7563H19.1636L18.8374 17.5862L18.832 17.5835C18.6448 17.4403 18.455 17.2945 18.2705 17.1459L18.2651 17.1405L18.2571 17.1297L18.1341 16.9595L18.1314 16.9541L18.1261 16.9406C18.1047 16.8893 18.086 16.8434 18.0673 16.7867C18.0646 16.7786 18.0619 16.7732 18.0592 16.7569C18.0592 16.7569 18.0566 16.7434 18.0566 16.7272V16.7164C18.0592 16.7056 18.0673 16.6813 18.0806 16.6678C18.0913 16.6516 18.1181 16.6408 18.1234 16.6381L18.1314 16.6354C18.1555 16.63 18.1555 16.63 18.1662 16.63L18.217 16.6273H18.2999H18.2865L18.6716 16.6084L18.6422 16.6111C18.7411 16.576 18.8454 16.5571 18.9497 16.5301L18.8561 16.6975C18.8454 16.657 18.8347 16.6192 18.824 16.5787L18.8347 16.603L18.7331 16.3977L18.7464 16.4193L18.5058 16.1114L18.2812 15.79L18.2758 15.7846L18.1555 15.5739L18.1502 15.5658L18.1475 15.5631C18.1154 15.4793 18.0913 15.3956 18.0539 15.3146L18.0405 15.2876L18.0512 15.266C18.0673 15.2308 18.086 15.1984 18.1074 15.166L18.1368 15.1228L18.1796 15.139C18.2224 15.1552 18.2518 15.1903 18.2892 15.2146L18.3962 15.2957L18.6074 15.4496Z" fill="black"/>
</g>
<path opacity="0.2" d="M18.9398 15.5842L18.6082 15.4464L18.3248 15.279L18.151 15.1655L18.1162 15.2736L18.2151 15.5194L18.3435 15.7246L18.5654 16.0191L18.8275 16.3297L18.9371 16.5323L18.9719 16.6511L18.6644 16.7294L18.2793 16.7348L18.1483 16.7294L18.2018 16.905L18.3168 17.0806L18.5654 17.3021L18.8515 17.5479L19.1697 17.7342L19.4024 17.8369L19.5361 17.8855L19.7286 17.718L19.6992 17.5992L19.5147 17.4506C19.5147 17.4506 19.3622 17.3372 19.3516 17.3237C19.3409 17.3102 19.3275 17.2156 19.3275 17.2156C19.3275 17.2156 19.4104 17.1184 19.4318 17.113C19.4505 17.1076 19.5147 17.0482 19.5361 17.0185C19.5548 16.9887 19.6751 16.9239 19.6885 16.9212C19.7045 16.9158 19.7927 16.8564 19.8061 16.8321C19.8222 16.8078 19.8703 16.7538 19.8703 16.7538L19.7767 16.6457C19.7767 16.6457 19.6082 16.5566 19.5895 16.5512C19.5708 16.5458 19.405 16.4026 19.3863 16.3756C19.3676 16.3459 19.2713 16.2379 19.2366 16.2C19.2018 16.1595 19.1136 16.1055 19.0842 16.0488C19.0548 15.9894 19.0146 15.9164 18.9933 15.8678C18.9719 15.8192 18.9852 15.7463 18.9665 15.676L18.9398 15.5842Z" fill="white"/>
<path d="M41.949 13.8259L42.6629 13.5909L43.3742 13.2209L43.8368 12.8103L43.7458 13.3181L43.433 14.0312L42.8929 14.9306L42.5132 15.4898L41.949 15.9625L41.8447 16.1974H42.588L43.3153 15.9922L43.4785 15.9462L43.2111 16.5054L42.8394 16.9483L42.3501 17.3157L41.8447 17.5669L41.9918 17.9504L42.4971 18.2881L42.6469 18.4501L42.3634 18.6419L41.8447 18.9822L41.3982 19.1146H41.2217" stroke="#D6D5D5" stroke-width="1.36461" stroke-miterlimit="10"/>
<path opacity="0.2" d="M40.3978 15.8493L40.7294 15.7116L41.0128 15.5441L41.1866 15.4307L41.2214 15.5387L41.1224 15.7845L40.9941 15.9898L40.7721 16.2842L40.5101 16.5948L40.4005 16.7974L40.3657 16.9163L40.6732 16.9946L41.0583 17L41.1893 16.9946L41.1358 17.1702L41.0208 17.3457L40.7721 17.5672L40.486 17.813L40.1678 17.9994L39.9352 18.102L39.8015 18.1506L39.609 17.9832L39.6384 17.8643L39.8229 17.7158C39.8229 17.7158 39.9753 17.6023 39.986 17.5888C39.9967 17.5753 40.0101 17.4808 40.0101 17.4808C40.0101 17.4808 39.9272 17.3835 39.9058 17.3781C39.8871 17.3727 39.8229 17.3133 39.8015 17.2836C39.7801 17.2539 39.6625 17.1891 39.6491 17.1864C39.6331 17.181 39.5448 17.1215 39.5315 17.0972C39.5154 17.0729 39.4673 17.0189 39.4673 17.0189L39.5609 16.9108C39.5609 16.9108 39.7293 16.8217 39.748 16.8163C39.7668 16.8109 39.9325 16.6678 39.9513 16.6407C39.97 16.6137 40.0662 16.503 40.101 16.4652C40.1358 16.4247 40.224 16.3706 40.2534 16.3139C40.2828 16.2545 40.3229 16.1816 40.3443 16.1329C40.3657 16.0843 40.3523 16.0114 40.3711 15.9412L40.3978 15.8493Z" fill="white"/>
<g opacity="0.2">
<path opacity="0.2" d="M40.7301 15.7116L41.1846 15.4307L41.2194 15.5387L41.1205 15.7845L40.9921 15.9898L40.7568 16.2977L40.5055 16.5921L40.3958 16.7947L40.3611 16.9136L40.6686 16.9919L41.0536 16.9973L41.1312 16.9919C41.1526 16.9919 41.198 16.9838 41.1793 17.0189C41.1659 17.0702 41.1472 17.1188 41.1312 17.1702L41.0162 17.3457C40.8397 17.5051 40.6605 17.659 40.4814 17.813L40.1632 17.9994C40.0429 18.0534 39.9225 18.1074 39.7969 18.1506C39.9199 18.0993 40.0375 18.0399 40.1552 17.9778H40.1525L40.46 17.7752L40.4547 17.7806C40.6258 17.6185 40.7969 17.4538 40.9627 17.2863L40.9493 17.3025L41.0536 17.1188L41.0429 17.1377C41.0563 17.0891 41.0723 17.0351 41.083 16.9892C41.083 16.9838 41.0857 16.9757 41.0857 16.9811C41.0857 16.9757 41.083 16.9892 41.0857 17.0027V17.0108C41.0884 17.0216 41.0937 17.0432 41.1071 17.0594C41.1178 17.0756 41.1419 17.0864 41.1472 17.0864L41.1526 17.0891L41.1659 17.0918L41.1365 17.0972L41.0643 17.1107H41.0536L40.6686 17.1215H40.6632L40.6392 17.1161C40.5349 17.0972 40.4333 17.0675 40.3317 17.0405L40.198 17.0081L40.2381 16.8757C40.2488 16.8352 40.2621 16.7974 40.2755 16.7596L40.2809 16.7407L40.2835 16.7353L40.4012 16.5381L40.4092 16.5219L40.4145 16.5165L40.6766 16.2329L40.9226 15.9358L40.9172 15.9412L41.0536 15.7413L41.0483 15.7548C41.083 15.6738 41.1258 15.5954 41.1526 15.5117L41.1499 15.5603C41.1445 15.5225 41.1392 15.4847 41.1365 15.4442L41.2087 15.4712C41.1739 15.5009 41.1312 15.5144 41.091 15.536L40.9707 15.5927L40.7301 15.7116Z" fill="black"/>
</g>
<path opacity="0.1" d="M15.4346 10.5361L16.0255 10.836L16.5202 11.1898L17.0951 11.8191L17.7475 12.5268L18.2021 13.2345L18.8358 13.8828L19.5899 14.8065L20.3225 15.4899L21.0552 16.3002L21.729 17.0673L22.2049 17.5778L22.3226 17.8533L21.967 18.1721L21.729 18.6393L21.352 19.2282L21.0338 19.5415H20.4188H19.6915L19.4936 19.4172L19.4883 19.6225C19.4883 19.6225 19.6728 19.8737 19.6808 19.8818C19.6861 19.8899 20.0471 20.16 20.0471 20.16L20.245 20.2465L20.1621 20.3113L19.5738 20.3599L19.5043 20.4058L20.0952 20.919L19.8573 21.2513L19.3706 21.9049L18.6674 22.6801C18.6674 22.6801 18.1727 22.9638 18.1486 22.9638C18.1246 22.9638 18.0149 23.0529 18.0149 23.0529L17.809 22.8233L17.4293 22.4506L17.0817 22.0508L16.6432 21.4485L16.3277 20.9028L16.087 20.341L15.9427 19.8872L15.7582 19.0904L15.6779 18.6069L15.6004 17.7966L15.5148 16.7324L15.3785 15.3359L15.2314 13.8044L15.1057 12.462L15.0522 11.5085C15.0522 11.5085 15.0629 11.0844 15.1137 10.9359C15.1485 10.8387 15.202 10.7144 15.2795 10.6442C15.3196 10.6091 15.4346 10.5361 15.4346 10.5361Z" fill="#131720"/>
<path opacity="0.1" d="M41.4202 22.9774L41.1101 22.9071L40.717 22.6127L40.2491 22.1643L39.7598 21.5323L39.3587 21.119L39.3293 21.0164L39.4469 20.8975L39.6314 20.8084L39.7865 20.7139L39.9122 20.5896L39.9282 20.5005L39.7196 20.4411C39.7196 20.4411 39.3346 20.4546 39.3266 20.4411C39.3186 20.4275 39.126 20.3735 39.126 20.3735L39.3105 20.3006L39.5111 20.198L39.7036 20.044L39.8159 19.8819L39.9336 19.7118L39.9924 19.5119H39.8132L39.6341 19.5848L39.2624 19.6658L38.8105 19.6793L38.3586 19.6496L38.0538 19.4065L37.6901 18.8528L37.3639 18.3369L37.0885 18.056L36.896 17.8723L37.0511 17.6211L37.281 17.3699L37.519 17.0971L37.765 16.854L37.9736 16.6109L38.3961 16.2193L39.2063 15.4684L39.8079 14.9093L40.3213 14.3934L40.8641 13.8261L41.316 13.2076L41.9176 12.5809L42.4363 12.0002L42.9872 11.4762L43.3963 11.1224L43.8348 10.8198L44.2519 10.6281L44.4819 10.4768L44.5648 10.5524L44.5995 10.5984L44.653 10.6902L44.6958 10.8225L44.7198 10.99L44.7252 11.2142L44.7172 11.4222L44.7038 11.6221L44.6904 11.8273L44.6744 12.0704L44.661 12.3108L44.6503 12.5404L44.6209 13.1968L44.6075 13.5425L44.5781 14.207L44.5541 14.6446L44.5059 15.3063L44.4712 15.6818L44.4257 16.1031L44.3402 16.9108L44.292 17.3699L44.2519 17.7697L44.2011 18.2316L44.1797 18.4044L44.1182 18.8123L44.0113 19.2958L43.907 19.6766L43.7385 20.2088L43.5594 20.676L43.2947 21.219L43.0861 21.5404L42.7839 21.878L42.2652 22.3075L41.5219 22.8045L41.4202 22.9774Z" fill="black"/>
<path d="M20.8975 43.0813C21.5125 43.6485 22.0927 44.2482 22.6569 44.8613L22.6489 44.8532C23.05 45.2205 23.4457 45.5933 23.8361 45.9741L23.6837 45.9606C24.3495 45.5528 25.0286 45.1611 25.7265 44.8046C25.1089 45.2881 24.4698 45.7419 23.8174 46.174L23.7398 46.2253L23.6676 46.1578C23.2639 45.7932 22.8681 45.4177 22.4777 45.0396L22.4724 45.0342L22.4697 45.0315C21.9242 44.4021 21.3948 43.7566 20.8975 43.0813Z" fill="white"/>
<path d="M38.1725 43.0813C37.9426 43.3406 37.7099 43.5945 37.4693 43.843C37.2286 44.0915 36.9853 44.3346 36.7393 44.5723C36.2446 45.0504 35.7393 45.5177 35.2205 45.9687L35.1483 46.0309L35.0761 45.9795C34.5574 45.6176 34.0467 45.2395 33.5547 44.837C34.1189 45.1287 34.667 45.4474 35.2045 45.7797L35.0601 45.7905C35.5521 45.3097 36.0575 44.8424 36.5735 44.3886C36.8302 44.1617 37.0923 43.9375 37.357 43.7188C37.627 43.5 37.8971 43.2893 38.1725 43.0813Z" fill="white"/>
<path d="M42.0109 46.6765C41.9226 46.9439 41.7997 47.1762 41.674 47.4004C41.6098 47.5112 41.543 47.6192 41.4708 47.7218L41.2889 48.0081C41.174 48.1972 41.0616 48.3782 40.9574 48.5619C40.9066 48.6537 40.8531 48.7428 40.805 48.8374L40.7301 48.9751L40.6525 49.1291C40.5188 49.3722 40.3584 49.6018 40.1712 49.8044C40.075 49.9043 39.9814 50.0042 39.8744 50.0907C39.821 50.1339 39.7702 50.1798 39.714 50.2203L39.5616 50.3257C39.1498 50.5985 38.7086 50.8416 38.1738 50.9901C38.3129 50.4472 38.5482 49.9988 38.8129 49.5802L39.0001 49.2912L39.1685 49.021C39.2782 48.8401 39.3824 48.6618 39.4787 48.4808L39.5723 48.3134C39.607 48.2539 39.6418 48.1945 39.6819 48.1378C39.7621 48.0243 39.8423 47.9109 39.9333 47.8083C40.1151 47.6003 40.321 47.4139 40.5456 47.2599C40.6579 47.1843 40.7755 47.1114 40.8959 47.0547C41.0082 47.0006 41.1231 46.9493 41.2435 46.9034C41.4868 46.8062 41.7328 46.7224 42.0109 46.6765Z" fill="#C3B4B2"/>
<path d="M15.1934 50.7334C15.7174 50.674 16.2308 50.6794 16.7335 50.6416C17.2362 50.6092 17.7362 50.5578 18.2309 50.4876C18.4796 50.4552 18.7256 50.412 18.9716 50.3688C19.0946 50.3499 19.2176 50.3255 19.3433 50.3012L19.5278 50.2607L19.5732 50.2526L19.6187 50.2445H19.632H19.6561L19.7524 50.2418C20.2684 50.2229 20.7845 50.2202 21.3086 50.2742C20.8112 50.4444 20.3059 50.5632 19.8005 50.6605L19.7069 50.6794L19.6829 50.6848L19.6722 50.6875H19.6695C19.6374 50.6929 19.7096 50.6794 19.7016 50.6821H19.6989L19.6935 50.6848L19.6481 50.701L19.4609 50.7631C19.3352 50.8009 19.2096 50.8387 19.0812 50.8739C18.8272 50.9387 18.5678 50.99 18.3058 51.0278C17.7844 51.1007 17.2523 51.1142 16.7282 51.0656C16.2014 51.0197 15.6907 50.8955 15.1934 50.7334Z" fill="#C3B4B2"/>
<path d="M21.6144 55.2092C21.5288 55.5063 21.4058 55.7575 21.2748 55.9979C21.1411 56.2356 21.0368 56.4328 20.9325 56.6381C20.8282 56.8407 20.732 57.0352 20.641 57.2269L20.5074 57.5159L20.4432 57.6591L20.3496 57.8536C20.2106 58.1183 20.0394 58.3668 19.8362 58.5856C19.7346 58.6936 19.6303 58.799 19.5153 58.8908C19.403 58.9853 19.2774 59.0745 19.1731 59.1366C18.7292 59.4067 18.2479 59.6417 17.6543 59.7605C17.7773 59.1609 18.0126 58.6801 18.2827 58.2317C18.3575 58.1156 18.4083 58.0237 18.4672 57.9292L18.6303 57.6483C18.7346 57.4619 18.8362 57.2783 18.9324 57.0946L19.01 56.9487C19.0447 56.8839 19.0795 56.8164 19.1196 56.7515C19.1971 56.6246 19.28 56.5003 19.3736 56.3842C19.5581 56.1519 19.772 55.9439 20.0127 55.7711C20.248 55.6036 20.5207 55.4577 20.7828 55.3794C21.0395 55.3038 21.3095 55.2335 21.6144 55.2092Z" fill="#C3B4B2"/>
<path d="M37.5405 52.9646C38.0138 53.1888 38.4577 53.4535 38.8882 53.7344C39.1074 53.8695 39.3133 54.0234 39.5272 54.1666C39.6502 54.253 39.7599 54.3638 39.8561 54.4826C39.9551 54.615 40.0085 54.723 40.0781 54.831L40.8669 56.1411C41.1316 56.5786 41.3963 57.0189 41.6423 57.4862C41.2278 57.1648 40.8642 56.7866 40.53 56.3869C40.1957 55.9871 39.8909 55.5603 39.6235 55.112C39.5567 54.9985 39.4925 54.8797 39.4363 54.804C39.3775 54.7176 39.3053 54.642 39.2251 54.5744C39.0299 54.407 38.8294 54.2449 38.6395 54.0693C38.2518 53.7236 37.8801 53.3644 37.5405 52.9646Z" fill="#C3B4B2"/>
<path opacity="0.1" d="M25.7901 45.2153L27.4373 48.6403L26.6458 51.2333C26.6458 51.2333 25.9318 53.2159 25.8917 53.4536C25.8516 53.6886 25.3757 56.3708 25.3382 56.6057C25.2981 56.8407 25.0094 60.1388 24.9826 60.2981C24.9158 60.679 24.7446 64.1174 24.7446 64.4713C24.7446 64.8251 24.373 67.5343 24.373 67.5343L23.3408 70.0679L21.6055 67.5991L22.4451 65.6867L22.5253 58.0265L24.4666 50.9551L26.0121 48.2729C26.1404 48.0515 26.1885 47.7922 26.1511 47.5383L25.7901 45.2153Z" fill="black"/>
<path opacity="0.1" d="M33.5829 44.9126L35.5215 51.1143L37.4333 56.7082C37.7141 57.532 38.1205 58.3072 38.6339 59.0095L41.1661 62.4642L40.3666 63.604L39.3425 63.1934C39.2168 63.1421 39.1019 63.0719 39.0029 62.9828L37.7221 61.8402C37.6874 61.8078 37.6526 61.7754 37.6232 61.7403L37.0483 61.0839C36.8103 60.8138 36.6231 60.5032 36.4948 60.1682L35.8664 58.5233L35.6793 56.7568L35.4707 55.3711L34.9947 54.261L34.3423 52.3351L33.9573 50.8577L33.3931 49.0074V47.8892V46.4171L33.5829 44.9126Z" fill="black"/>
</g>
</svg>
